<?xml version="1.0" encoding="utf-8"?>
<!-- Generator: Adobe Illustrator 15.0.2, SVG Export Plug-In . SVG Version: 6.00 Build 0)  -->
<!DOCTYPE svg PUBLIC "-//W3C//DTD SVG 1.1//EN" "http://www.w3.org/Graphics/SVG/1.1/DTD/svg11.dtd">
<svg version="1.1" id="レイヤー_1" xmlns="http://www.w3.org/2000/svg" xmlns:xlink="http://www.w3.org/1999/xlink" x="0px"
	 y="0px" width="283.46px" height="283.46px" viewBox="0 0 283.46 283.46" enable-background="new 0 0 283.46 283.46"
	 xml:space="preserve">
<g>
	<path fill="#FFFFFF" d="M96.042,81.721l-0.94,1.308c-1.531-1.46-2.713-2.929-3.546-4.409l-0.145,0.136
		c0.155,0.762,0.232,1.566,0.232,2.413c0,5.394-2.403,8.09-7.208,8.09c-1.886,0-3.385-0.503-4.496-1.511s-1.663-2.399-1.657-4.176
		c-0.006-1.466,0.444-2.976,1.352-4.53c0.908-1.553,2.036-2.798,3.386-3.735l-0.058-0.136c-1.337,0.31-3.223,0.601-5.658,0.872
		l-0.194-1.415c3.488-0.316,6.026-0.652,7.616-1.007l0.794,1.153c-1.512,0.93-2.849,2.235-4.011,3.914
		c-1.163,1.68-1.744,3.378-1.744,5.096c0,1.234,0.444,2.23,1.332,2.989s2.001,1.138,3.338,1.138c1.957,0,3.412-0.568,4.365-1.705
		s1.429-2.958,1.429-5.464c0-2.545-0.294-4.541-0.882-5.988l1.512-0.494C91.763,77.174,93.491,79.661,96.042,81.721z M93.436,74.852
		l-1.104,0.494c-0.465-1.046-0.937-1.954-1.415-2.723l1.075-0.494C92.49,72.904,92.971,73.812,93.436,74.852z M96.062,74.271
		l-1.114,0.456c-0.433-1.001-0.895-1.896-1.385-2.684l1.008-0.494C95.067,72.317,95.564,73.224,96.062,74.271z"/>
	<path fill="#FFFFFF" d="M108.006,73.563c-0.827,1.653-2.025,4.146-3.595,7.479c0.872-0.575,1.676-0.862,2.413-0.862
		c0.691,0.006,1.234,0.21,1.628,0.61c0.394,0.4,0.665,1.15,0.813,2.248c0.142,1.563,0.275,2.601,0.397,3.115
		s0.367,0.909,0.731,1.187s0.877,0.417,1.536,0.417c2.047,0,3.404-1.954,4.069-5.862l1.385,0.436
		c-0.529,2.751-1.242,4.575-2.136,5.469s-2.052,1.342-3.473,1.342c-1.428,0.006-2.389-0.381-2.883-1.163
		c-0.494-0.781-0.796-1.844-0.906-3.188l-0.174-1.773c-0.045-0.458-0.184-0.84-0.417-1.144c-0.232-0.303-0.542-0.455-0.93-0.455
		c-0.646,0-1.308,0.284-1.986,0.853s-1.18,1.226-1.506,1.972s-1.064,2.385-2.214,4.917l-1.347-0.465l3.052-6.938l4.05-8.671
		L108.006,73.563z"/>
	<path fill="#FFFFFF" d="M128.262,81.401c0-0.491,0.175-0.911,0.523-1.259c0.349-0.349,0.769-0.523,1.259-0.523
		c0.491,0,0.911,0.174,1.26,0.523c0.349,0.349,0.523,0.769,0.523,1.259c0,0.491-0.174,0.911-0.523,1.26
		c-0.349,0.349-0.769,0.523-1.26,0.523c-0.491,0-0.911-0.174-1.259-0.523C128.437,82.312,128.262,81.893,128.262,81.401z"/>
	<path fill="#FFFFFF" d="M144.102,89.569v-6.695h1.521v4.651h5.416v-6.152h-8.052V80.2h8.052v-4.331h-4.457
		c-0.893,1.453-1.693,2.513-2.402,3.178l-1.027-0.688c0.703-0.795,1.418-1.809,2.141-3.042c0.723-1.233,1.275-2.371,1.656-3.411
		l1.463,0.359c-0.264,0.71-0.643,1.515-1.133,2.412h12.605v1.192h-7.307V80.2h8.158v1.172h-8.158v6.152h5.688v-4.651h1.521v6.695
		h-1.521v-0.911h-12.643v0.911H144.102z"/>
	<path fill="#FFFFFF" d="M171.916,81.401c0-0.491,0.174-0.911,0.522-1.259c0.35-0.349,0.769-0.523,1.26-0.523
		s0.911,0.174,1.26,0.523c0.349,0.349,0.523,0.769,0.523,1.259c0,0.491-0.175,0.911-0.523,1.26c-0.349,0.349-0.769,0.523-1.26,0.523
		s-0.91-0.174-1.26-0.523C172.09,82.312,171.916,81.893,171.916,81.401z"/>
	<path fill="#FFFFFF" d="M205.312,86.401l-0.979,1.453c-1.796-1.893-3.7-3.846-5.712-5.861c-2.012-2.016-3.318-3.294-3.919-3.837
		s-0.939-0.832-1.018-0.867c-0.077-0.036-0.155-0.053-0.232-0.053c-0.058,0-0.143,0.022-0.252,0.068
		c-0.109,0.045-0.323,0.266-0.64,0.664c-0.316,0.397-1.35,1.742-3.1,4.035l-2.665,3.469l-1.114-1.095
		c0.459-0.523,1.053-1.27,1.783-2.238l4.088-5.436c0.427-0.549,1.018-0.823,1.773-0.823c0.329,0,0.667,0.062,1.013,0.184
		s0.771,0.42,1.274,0.891l2.926,2.771C199.979,81.095,202.236,83.32,205.312,86.401z M198.762,75.763v-0.029
		c0-0.581,0.215-1.069,0.645-1.463c0.429-0.394,0.928-0.591,1.497-0.591c0.633,0,1.15,0.205,1.555,0.615
		c0.403,0.41,0.605,0.886,0.605,1.429c0,0.62-0.217,1.126-0.649,1.517s-0.924,0.586-1.473,0.586c-0.633,0-1.154-0.208-1.564-0.625
		C198.967,76.785,198.762,76.305,198.762,75.763z M200.903,77.138c0.381,0,0.712-0.134,0.992-0.402
		c0.281-0.268,0.422-0.589,0.422-0.964c0-0.388-0.139-0.72-0.417-0.998c-0.277-0.278-0.61-0.417-0.997-0.417
		c-0.362,0-0.684,0.137-0.965,0.412c-0.28,0.274-0.421,0.599-0.421,0.974s0.139,0.701,0.416,0.979
		C200.212,77,200.535,77.138,200.903,77.138z"/>
	<path fill="#FFFFFF" d="M213.797,82.971l-1.521,0.494c-0.549-1.796-1.33-3.64-2.344-5.533l1.347-0.503
		c0.555,0.969,0.949,1.708,1.182,2.219S213.138,81.266,213.797,82.971z M223.979,77.1c-0.484,4.031-1.688,7.002-3.608,8.914
		c-1.922,1.912-4.568,3.101-7.94,3.565l-0.436-1.289c3.682-0.529,6.278-1.799,7.789-3.808c1.512-2.009,2.381-4.518,2.606-7.528
		L223.979,77.1z M218.506,82.041l-1.531,0.513c-0.445-1.576-1.227-3.423-2.345-5.542l1.356-0.533c0.73,1.35,1.186,2.259,1.366,2.728
		S217.918,80.62,218.506,82.041z"/>
	<path fill="#FFFFFF" d="M248.074,82.458l-1.018,1.347c-1.344-0.897-2.948-1.779-4.815-2.645c-1.866-0.865-3.529-1.518-4.989-1.957
		v10.28h-1.725V72.517h1.744v5.193C241.102,78.86,244.702,80.442,248.074,82.458z"/>
	<path fill="#FFFFFF" d="M257.5,79.812c-1.002,3.372-2.71,6.104-5.126,8.197l-1.172-0.93c1.26-1.188,2.278-2.495,3.057-3.919
		c0.778-1.424,1.287-2.641,1.526-3.648L257.5,79.812z M261.859,89.336h-1.705V77.429h-7.993v-1.386h7.993v-3.255h1.705v3.255h7.8
		v1.386h-7.8V89.336z M270.734,86.982l-1.317,1.046c-1.047-0.981-2.021-2.283-2.926-3.904s-1.548-3.078-1.929-4.37l1.579-0.339
		C267.033,82.167,268.564,84.689,270.734,86.982z M267.218,74.755l-1.114,0.494c-0.465-1.053-0.934-1.957-1.405-2.713l1.057-0.484
		C266.304,72.898,266.791,73.799,267.218,74.755z M270.037,74.164l-1.114,0.455c-0.439-1.027-0.901-1.921-1.386-2.684l1.008-0.475
		C269.068,72.268,269.565,73.169,270.037,74.164z"/>
	<path fill="#FFFFFF" d="M291.729,82.458l-1.018,1.347c-1.344-0.897-2.948-1.779-4.815-2.645c-1.866-0.865-3.529-1.518-4.989-1.957
		v10.28h-1.725V72.517h1.744v5.193C284.756,78.86,288.356,80.442,291.729,82.458z"/>
	<path fill="#FFFFFF" d="M300.757,78.33c0,1.524-0.068,2.766-0.203,3.725c-0.136,0.959-0.444,1.899-0.926,2.82
		s-1.087,1.762-1.816,2.524c-0.73,0.762-1.515,1.363-2.354,1.802l-0.717-1.23c0.808-0.497,1.553-1.153,2.238-1.967
		c0.685-0.813,1.211-1.776,1.579-2.887c0.368-1.111,0.552-2.813,0.552-5.106v-4.088h1.647V78.33z M314.544,81.779
		c-0.827,1.763-2.104,3.299-3.832,4.607s-3.435,2.194-5.12,2.66l-0.708-0.659V73.302h1.628v13.68
		c1.066-0.316,2.224-0.972,3.474-1.967c1.25-0.995,2.365-2.357,3.348-4.088L314.544,81.779z"/>
</g>
</svg>
