<?xml version="1.0" encoding="utf-8"?>
<!-- Generator: Adobe Illustrator 15.0.2, SVG Export Plug-In . SVG Version: 6.00 Build 0)  -->
<!DOCTYPE svg PUBLIC "-//W3C//DTD SVG 1.1//EN" "http://www.w3.org/Graphics/SVG/1.1/DTD/svg11.dtd">
<svg version="1.1" id="レイヤー_1" xmlns="http://www.w3.org/2000/svg" xmlns:xlink="http://www.w3.org/1999/xlink" x="0px"
	 y="0px" width="257.95px" height="155.91px" viewBox="0 0 257.95 155.91" enable-background="new 0 0 257.95 155.91"
	 xml:space="preserve">
<g>
	<path fill="#FFFFFF" d="M45.705,46.3l-1.13-0.271c0.486-1.806,0.772-3.363,0.859-4.671l1.308,0.14
		c-0.087,0.81-0.237,1.716-0.448,2.719C46.082,45.219,45.885,45.914,45.705,46.3z M47.751,48.075v-8.101
		c-1.333,0.106-2.327,0.171-2.98,0.196l-0.14-1.13l1.224-0.028c0.505-0.598,1.037-1.265,1.598-2
		c-0.087-0.093-1.009-1.019-2.765-2.775l0.859-0.822l0.411,0.374c0.803-1.059,1.429-2.056,1.878-2.99l1.289,0.514
		c-0.629,1.003-1.417,2.087-2.364,3.251c0.523,0.504,1,0.99,1.43,1.458c0.972-1.333,1.66-2.382,2.064-3.148l1.271,0.504
		c-1.246,1.85-2.685,3.712-4.316,5.587c1.277-0.056,2.335-0.127,3.176-0.215c-0.211-0.648-0.374-1.112-0.486-1.392l1.149-0.271
		l1.037,3.064l-1.168,0.271c-0.05-0.187-0.125-0.433-0.224-0.738c-0.424,0.062-0.94,0.122-1.551,0.178v8.212H47.751z M50.582,44.702
		c-0.025-0.131-0.162-1.217-0.411-3.261l1.159-0.121c0.093,0.778,0.243,1.859,0.448,3.242L50.582,44.702z M51.17,47.879
		l-0.271-1.206c0.448-0.049,1.093-0.134,1.934-0.252V32.407c1.134-0.1,2.576-0.294,4.326-0.584c1.75-0.29,3.093-0.578,4.027-0.864
		l0.701,1.112c-0.654,0.2-1.722,0.424-3.205,0.673c-0.012,0.654-0.019,1.121-0.019,1.401c0,0.499,0.016,1.629,0.047,3.392h3.755
		v1.149h-3.737c0.093,2.597,0.433,4.525,1.018,5.783s1.075,1.887,1.467,1.887c0.181,0,0.326-0.146,0.435-0.439
		c0.109-0.293,0.22-1.199,0.332-2.719l1.112,0.252c0,1.551-0.117,2.689-0.35,3.415s-0.653,1.088-1.257,1.088
		c-0.417,0-0.808-0.137-1.172-0.411c-0.364-0.274-0.772-0.755-1.224-1.443c-0.452-0.688-0.843-1.588-1.173-2.7
		s-0.529-2.683-0.598-4.713h-3.046v7.521c1.65-0.255,2.855-0.473,3.616-0.654L58,46.673C56.692,47.003,54.415,47.405,51.17,47.879z
		 M54.272,33.341v4.195h2.999c-0.025-0.866-0.038-2.024-0.038-3.476v-1.093C56.013,33.148,55.025,33.273,54.272,33.341z"/>
	<path fill="#FFFFFF" d="M67.908,39.134l-0.588-0.878c1.476-0.679,2.803-1.635,3.98-2.868h-3.316v-1.056h3.784v-3.139h1.373v3.139
		h3.513v1.056h-3.205c0.928,0.778,2.046,1.513,3.354,2.205l-0.757,0.897c-0.878-0.442-1.853-1.127-2.924-2.055v2.56h-1.327v-2.476
		C70.643,37.621,69.347,38.493,67.908,39.134z M72.599,43.553c-0.361,0.94-0.948,1.805-1.761,2.592
		c-0.813,0.788-1.758,1.409-2.835,1.864l-0.626-0.953c1.021-0.473,1.911-1.12,2.667-1.938c0.756-0.819,1.234-1.662,1.434-2.527
		h-3.55v-1.14h3.765v-1.654h1.448v1.654h3.41v1.14h-3.139c0.567,1.053,1.482,2.021,2.747,2.906l-0.972,0.972
		C73.972,45.583,73.109,44.612,72.599,43.553z M69.347,33.827l-0.757-1.878l1.13-0.327l0.785,1.831L69.347,33.827z M75.401,33.743
		l-1.019-0.215l0.804-1.953l1.13,0.233L75.401,33.743z M76.242,48.01l-0.626-0.972c1.463-0.567,2.681-1.271,3.653-2.112l0.916,0.944
		c-0.504,0.398-1.155,0.812-1.953,1.238C77.435,47.535,76.771,47.835,76.242,48.01z M77.644,44.618V34.444h2.335l0.505-1.756h-3.466
		v-1.065h8.567v1.065h-3.606l-0.738,1.756h3.728v10.174H77.644z M79.054,37.434h4.503v-1.971h-4.503V37.434z M79.054,40.442h4.503
		v-2.027h-4.503V40.442z M83.558,41.414h-4.503v2.149h4.503V41.414z M85.37,47.935c-0.499-0.193-1.101-0.508-1.808-0.944
		s-1.26-0.825-1.658-1.168l0.794-0.953c0.972,0.81,2.124,1.479,3.457,2.008L85.37,47.935z"/>
	<path fill="#FFFFFF" d="M103.338,47.972l-0.252-1.327c0.66-0.068,1.579-0.193,2.756-0.374v-5.783
		c-1.439,1.482-2.956,2.722-4.55,3.718l-0.72-1.009c1.576-1.034,3.049-2.289,4.419-3.765c1.37-1.476,2.404-2.884,3.102-4.223h-6.586
		v-1.187h7.904v-3.045h1.504v3.045h7.96v1.187h-7.194c0.455,2.031,1.049,3.74,1.784,5.129c1.507-1.059,2.756-2.13,3.747-3.214
		l1.252,0.99c-1.358,1.177-2.806,2.283-4.344,3.316c1.507,2.298,3.289,4.077,5.344,5.335l-1.093,1.13
		c-1.956-1.214-3.703-3-5.241-5.358c-1.538-2.357-2.482-4.801-2.831-7.33h-0.551c-0.667,1.24-1.476,2.445-2.429,3.616v7.212
		c3.232-0.517,5.316-0.9,6.25-1.149l0.019,1.271C112.534,46.533,109.118,47.138,103.338,47.972z"/>
	<path fill="#FFFFFF" d="M124.159,39.134l-0.588-0.878c1.476-0.679,2.803-1.635,3.98-2.868h-3.316v-1.056h3.784v-3.139h1.373v3.139
		h3.514v1.056h-3.205c0.928,0.778,2.047,1.513,3.354,2.205l-0.756,0.897c-0.879-0.442-1.854-1.127-2.925-2.055v2.56h-1.327v-2.476
		C126.893,37.621,125.598,38.493,124.159,39.134z M128.849,43.553c-0.361,0.94-0.948,1.805-1.761,2.592
		c-0.813,0.788-1.758,1.409-2.835,1.864l-0.626-0.953c1.021-0.473,1.911-1.12,2.667-1.938c0.756-0.819,1.234-1.662,1.434-2.527
		h-3.55v-1.14h3.765v-1.654h1.448v1.654h3.41v1.14h-3.139c0.567,1.053,1.483,2.021,2.747,2.906l-0.971,0.972
		C130.223,45.583,129.359,44.612,128.849,43.553z M125.598,33.827l-0.757-1.878l1.13-0.327l0.785,1.831L125.598,33.827z
		 M131.652,33.743l-1.02-0.215l0.805-1.953l1.129,0.233L131.652,33.743z M132.492,48.01l-0.625-0.972
		c1.463-0.567,2.682-1.271,3.652-2.112l0.916,0.944c-0.504,0.398-1.156,0.812-1.953,1.238
		C133.686,47.535,133.021,47.835,132.492,48.01z M133.895,44.618V34.444h2.336l0.504-1.756h-3.467v-1.065h8.568v1.065h-3.607
		l-0.738,1.756h3.729v10.174H133.895z M135.305,37.434h4.504v-1.971h-4.504V37.434z M135.305,40.442h4.504v-2.027h-4.504V40.442z
		 M139.809,41.414h-4.504v2.149h4.504V41.414z M141.621,47.935c-0.5-0.193-1.102-0.508-1.809-0.944s-1.26-0.825-1.658-1.168
		l0.795-0.953c0.971,0.81,2.123,1.479,3.455,2.008L141.621,47.935z"/>
</g>
</svg>
