<?xml version="1.0" encoding="utf-8"?>
<!-- Generator: Adobe Illustrator 15.0.2, SVG Export Plug-In . SVG Version: 6.00 Build 0)  -->
<!DOCTYPE svg PUBLIC "-//W3C//DTD SVG 1.1//EN" "http://www.w3.org/Graphics/SVG/1.1/DTD/svg11.dtd">
<svg version="1.1" id="レイヤー_1" xmlns="http://www.w3.org/2000/svg" xmlns:xlink="http://www.w3.org/1999/xlink" x="0px"
	 y="0px" width="283.46px" height="283.46px" viewBox="0 0 283.46 283.46" enable-background="new 0 0 283.46 283.46"
	 xml:space="preserve">
<g>
	<path fill="#FFFFFF" d="M18.637,82.751l-1.172-0.281c0.504-1.873,0.801-3.488,0.892-4.844l1.356,0.145
		c-0.09,0.84-0.245,1.78-0.465,2.819C19.028,81.63,18.824,82.351,18.637,82.751z M20.759,84.592v-8.4
		c-1.382,0.11-2.412,0.178-3.09,0.204l-0.146-1.172l1.269-0.029c0.523-0.62,1.076-1.311,1.657-2.073
		c-0.091-0.097-1.046-1.056-2.868-2.877l0.892-0.853l0.426,0.388c0.833-1.098,1.482-2.131,1.947-3.1l1.337,0.533
		c-0.652,1.04-1.469,2.164-2.451,3.372c0.542,0.523,1.037,1.027,1.482,1.512c1.008-1.382,1.721-2.471,2.141-3.265l1.318,0.523
		c-1.292,1.918-2.784,3.85-4.476,5.794c1.324-0.058,2.422-0.132,3.294-0.223c-0.22-0.672-0.388-1.153-0.504-1.444l1.192-0.281
		l1.075,3.178l-1.211,0.281c-0.052-0.194-0.129-0.449-0.232-0.765c-0.439,0.064-0.976,0.126-1.608,0.184v8.516H20.759z
		 M23.695,81.094c-0.026-0.136-0.168-1.263-0.426-3.381l1.201-0.126c0.097,0.808,0.252,1.928,0.465,3.362L23.695,81.094z
		 M24.305,84.389l-0.281-1.25c0.465-0.052,1.134-0.139,2.006-0.262V68.344c1.175-0.103,2.671-0.305,4.486-0.605
		s3.207-0.599,4.176-0.896l0.727,1.153c-0.678,0.207-1.786,0.439-3.323,0.698c-0.013,0.678-0.019,1.163-0.019,1.453
		c0,0.517,0.016,1.689,0.048,3.517h3.895v1.192h-3.875c0.097,2.693,0.449,4.692,1.056,5.997c0.607,1.305,1.114,1.957,1.521,1.957
		c0.187,0,0.337-0.151,0.45-0.455c0.113-0.304,0.228-1.244,0.344-2.819l1.153,0.261c0,1.608-0.121,2.789-0.363,3.542
		s-0.677,1.128-1.303,1.128c-0.433,0-0.838-0.142-1.216-0.426s-0.801-0.783-1.27-1.497s-0.874-1.647-1.216-2.8
		s-0.549-2.782-0.62-4.888h-3.158v7.799c1.711-0.265,2.961-0.491,3.75-0.678l0.116,1.163C30.031,83.481,27.67,83.897,24.305,84.389z
		 M27.522,69.313v4.35h3.11c-0.026-0.898-0.039-2.099-0.039-3.604v-1.134C29.327,69.113,28.303,69.242,27.522,69.313z"/>
	<path fill="#FFFFFF" d="M39.679,75.32l-0.61-0.911c1.531-0.704,2.906-1.696,4.127-2.975h-3.44V70.34h3.924v-3.255h1.424v3.255
		h3.643v1.095h-3.323c0.962,0.808,2.122,1.57,3.479,2.287l-0.785,0.93c-0.911-0.458-1.922-1.169-3.033-2.131v2.654h-1.376v-2.567
		C42.515,73.75,41.171,74.655,39.679,75.32z M44.543,79.903c-0.375,0.975-0.983,1.872-1.827,2.688
		c-0.843,0.817-1.823,1.461-2.94,1.933l-0.649-0.988c1.059-0.491,1.981-1.161,2.766-2.011c0.785-0.849,1.28-1.723,1.487-2.621
		h-3.682v-1.182h3.905v-1.715h1.502v1.715h3.536v1.182h-3.255c0.588,1.092,1.537,2.096,2.849,3.013l-1.008,1.007
		C45.967,82.008,45.072,81.001,44.543,79.903z M41.171,69.817l-0.785-1.948l1.172-0.339l0.814,1.899L41.171,69.817z M47.449,69.729
		l-1.056-0.223l0.833-2.025l1.172,0.243L47.449,69.729z M48.321,84.524l-0.649-1.007c1.518-0.588,2.781-1.318,3.788-2.19l0.95,0.979
		c-0.523,0.413-1.198,0.841-2.025,1.284C49.558,84.032,48.87,84.343,48.321,84.524z M49.775,81.007V70.456h2.422l0.523-1.821h-3.595
		V67.53h8.885v1.104h-3.74l-0.766,1.821h3.866v10.551H49.775z M51.238,73.557h4.67v-2.044h-4.67V73.557z M51.238,76.676h4.67v-2.103
		h-4.67V76.676z M55.908,77.684h-4.67v2.228h4.67V77.684z M57.787,84.447c-0.517-0.2-1.142-0.527-1.875-0.979
		c-0.733-0.452-1.307-0.856-1.72-1.211l0.823-0.988c1.008,0.84,2.203,1.534,3.585,2.083L57.787,84.447z"/>
	<path fill="#FFFFFF" d="M68.908,76.24c0-0.491,0.175-0.911,0.523-1.259c0.349-0.349,0.769-0.523,1.259-0.523
		c0.491,0,0.911,0.174,1.26,0.523c0.349,0.349,0.523,0.769,0.523,1.259c0,0.491-0.174,0.911-0.523,1.26
		c-0.349,0.349-0.769,0.523-1.26,0.523c-0.491,0-0.911-0.174-1.259-0.523C69.083,77.151,68.908,76.731,68.908,76.24z"/>
	<path fill="#FFFFFF" d="M85.551,84.485l-0.262-1.376c0.685-0.071,1.637-0.2,2.858-0.387v-5.998
		c-1.492,1.538-3.065,2.823-4.718,3.856l-0.746-1.046c1.634-1.072,3.162-2.374,4.583-3.905c1.421-1.531,2.493-2.99,3.216-4.379
		h-6.83v-1.23h8.196v-3.158h1.56v3.158h8.255v1.23h-7.46c0.471,2.106,1.088,3.879,1.851,5.319c1.563-1.098,2.858-2.209,3.885-3.333
		l1.298,1.027c-1.408,1.221-2.91,2.368-4.505,3.439c1.563,2.384,3.41,4.228,5.542,5.532l-1.134,1.172
		c-2.028-1.259-3.84-3.111-5.435-5.556c-1.596-2.445-2.574-4.979-2.936-7.601h-0.571c-0.691,1.286-1.531,2.535-2.519,3.75v7.48
		c3.352-0.536,5.513-0.934,6.481-1.192l0.02,1.318C95.087,82.993,91.544,83.62,85.551,84.485z"/>
	<path fill="#FFFFFF" d="M105.159,75.32l-0.61-0.911c1.531-0.704,2.906-1.696,4.127-2.975h-3.44V70.34h3.924v-3.255h1.424v3.255
		h3.643v1.095h-3.323c0.962,0.808,2.122,1.57,3.479,2.287l-0.785,0.93c-0.911-0.458-1.922-1.169-3.033-2.131v2.654h-1.376v-2.567
		C107.994,73.75,106.65,74.655,105.159,75.32z M110.022,79.903c-0.375,0.975-0.983,1.872-1.827,2.688
		c-0.843,0.817-1.823,1.461-2.94,1.933l-0.649-0.988c1.059-0.491,1.981-1.161,2.766-2.011c0.785-0.849,1.28-1.723,1.487-2.621
		h-3.682v-1.182h3.905v-1.715h1.502v1.715h3.536v1.182h-3.255c0.588,1.092,1.537,2.096,2.849,3.013l-1.008,1.007
		C111.447,82.008,110.552,81.001,110.022,79.903z M106.65,69.817l-0.785-1.948l1.172-0.339l0.814,1.899L106.65,69.817z
		 M112.929,69.729l-1.056-0.223l0.833-2.025l1.172,0.243L112.929,69.729z M113.801,84.524l-0.649-1.007
		c1.518-0.588,2.781-1.318,3.788-2.19l0.95,0.979c-0.523,0.413-1.198,0.841-2.025,1.284
		C115.038,84.032,114.35,84.343,113.801,84.524z M115.254,81.007V70.456h2.422l0.523-1.821h-3.595V67.53h8.885v1.104h-3.74
		l-0.766,1.821h3.866v10.551H115.254z M116.717,73.557h4.67v-2.044h-4.67V73.557z M116.717,76.676h4.67v-2.103h-4.67V76.676z
		 M121.387,77.684h-4.67v2.228h4.67V77.684z M123.267,84.447c-0.517-0.2-1.142-0.527-1.875-0.979
		c-0.733-0.452-1.307-0.856-1.72-1.211l0.823-0.988c1.008,0.84,2.203,1.534,3.585,2.083L123.267,84.447z"/>
</g>
</svg>
