<?xml version="1.0" encoding="utf-8"?>
<!-- Generator: Adobe Illustrator 15.0.2, SVG Export Plug-In . SVG Version: 6.00 Build 0)  -->
<!DOCTYPE svg PUBLIC "-//W3C//DTD SVG 1.1//EN" "http://www.w3.org/Graphics/SVG/1.1/DTD/svg11.dtd">
<svg version="1.1" id="レイヤー_1" xmlns="http://www.w3.org/2000/svg" xmlns:xlink="http://www.w3.org/1999/xlink" x="0px"
	 y="0px" width="257.95px" height="155.91px" viewBox="0 0 257.95 155.91" enable-background="new 0 0 257.95 155.91"
	 xml:space="preserve">
<g>
	<path fill="#FFFFFF" d="M33.371,47.951l-0.906,1.261c-1.476-1.408-2.616-2.825-3.419-4.251l-0.14,0.131
		c0.149,0.735,0.224,1.51,0.224,2.326c0,5.201-2.317,7.801-6.951,7.801c-1.819,0-3.264-0.486-4.335-1.458s-1.604-2.314-1.598-4.027
		c-0.006-1.414,0.428-2.87,1.303-4.368s1.964-2.698,3.266-3.602l-0.056-0.131c-1.29,0.299-3.108,0.579-5.456,0.841l-0.187-1.364
		c3.363-0.305,5.811-0.629,7.343-0.972l0.766,1.112c-1.458,0.896-2.747,2.155-3.868,3.774c-1.121,1.619-1.682,3.257-1.682,4.914
		c0,1.19,0.428,2.15,1.285,2.882c0.856,0.732,1.929,1.098,3.218,1.098c1.887,0,3.29-0.548,4.209-1.644s1.378-2.853,1.378-5.27
		c0-2.454-0.283-4.378-0.85-5.774l1.458-0.477C29.244,43.566,30.91,45.964,33.371,47.951z M30.857,41.327l-1.065,0.476
		c-0.448-1.009-0.903-1.884-1.364-2.625l1.037-0.477C29.945,39.449,30.409,40.324,30.857,41.327z M33.389,40.767l-1.074,0.439
		c-0.417-0.965-0.863-1.828-1.336-2.588l0.972-0.477C32.43,38.882,32.91,39.757,33.389,40.767z"/>
	<path fill="#FFFFFF" d="M46.82,40.084c-0.797,1.594-1.953,3.999-3.466,7.212c0.841-0.554,1.616-0.832,2.326-0.832
		c0.667,0.006,1.189,0.203,1.57,0.589c0.379,0.386,0.641,1.108,0.785,2.167c0.137,1.507,0.265,2.508,0.383,3.003
		s0.354,0.877,0.706,1.145c0.352,0.268,0.846,0.402,1.481,0.402c1.974,0,3.282-1.884,3.924-5.652l1.336,0.42
		c-0.511,2.653-1.197,4.411-2.06,5.274s-1.979,1.294-3.35,1.294c-1.376,0.006-2.303-0.368-2.779-1.121s-0.768-1.778-0.874-3.074
		l-0.168-1.709c-0.044-0.442-0.178-0.81-0.402-1.103c-0.224-0.293-0.523-0.439-0.897-0.439c-0.623,0-1.261,0.274-1.915,0.822
		c-0.654,0.548-1.139,1.182-1.453,1.901s-1.026,2.3-2.135,4.741l-1.298-0.448l2.943-6.689l3.905-8.362L46.82,40.084z"/>
	<path fill="#FFFFFF" d="M72.823,55.519v-6.456h1.467v4.485h5.223v-5.933h-7.764v-1.13h7.764v-4.176h-4.298
		c-0.859,1.401-1.632,2.423-2.317,3.064l-0.99-0.664c0.679-0.766,1.367-1.744,2.064-2.934c0.698-1.189,1.23-2.286,1.598-3.289
		l1.411,0.346c-0.256,0.685-0.62,1.46-1.093,2.326h12.155v1.149h-7.044v4.176h7.867v1.13h-7.867v5.933h5.484v-4.485h1.467v6.456
		h-1.467V54.64H74.29v0.878H72.823z"/>
	<path fill="#FFFFFF" d="M123.042,52.463l-0.944,1.401c-1.731-1.825-3.567-3.709-5.507-5.652c-1.94-1.943-3.2-3.176-3.779-3.7
		c-0.579-0.523-0.906-0.802-0.981-0.836s-0.149-0.051-0.224-0.051c-0.056,0-0.137,0.021-0.243,0.065
		c-0.106,0.043-0.312,0.257-0.617,0.64c-0.305,0.383-1.302,1.68-2.989,3.891l-2.569,3.345l-1.075-1.056
		c0.442-0.504,1.015-1.224,1.719-2.158l3.942-5.241c0.411-0.529,0.981-0.794,1.71-0.794c0.318,0,0.643,0.059,0.976,0.177
		c0.333,0.119,0.743,0.405,1.229,0.86l2.821,2.672C117.899,47.347,120.077,49.493,123.042,52.463z M116.726,42.205v-0.028
		c0-0.561,0.207-1.031,0.621-1.411c0.415-0.38,0.896-0.57,1.444-0.57c0.61,0,1.11,0.198,1.5,0.593
		c0.389,0.396,0.583,0.855,0.583,1.378c0,0.598-0.208,1.085-0.625,1.462c-0.417,0.377-0.891,0.565-1.42,0.565
		c-0.61,0-1.113-0.201-1.509-0.603C116.923,43.191,116.726,42.729,116.726,42.205z M118.791,43.532c0.367,0,0.687-0.129,0.958-0.388
		c0.271-0.258,0.406-0.568,0.406-0.93c0-0.374-0.134-0.694-0.402-0.962c-0.268-0.268-0.588-0.402-0.962-0.402
		c-0.349,0-0.659,0.132-0.93,0.397s-0.407,0.578-0.407,0.939s0.134,0.676,0.402,0.943C118.124,43.398,118.436,43.532,118.791,43.532
		z"/>
	<path fill="#FFFFFF" d="M133.137,49.156l-1.467,0.477c-0.529-1.731-1.283-3.51-2.261-5.335l1.298-0.486
		c0.537,0.935,0.916,1.647,1.141,2.14S132.502,47.512,133.137,49.156z M142.955,43.495c-0.467,3.886-1.627,6.751-3.479,8.595
		c-1.854,1.844-4.406,2.99-7.656,3.438l-0.422-1.243c3.551-0.51,6.055-1.734,7.512-3.671s2.295-4.357,2.514-7.259L142.955,43.495z
		 M137.678,48.259l-1.477,0.495c-0.43-1.52-1.184-3.301-2.262-5.344l1.309-0.514c0.703,1.302,1.143,2.179,1.318,2.63
		C136.74,45.978,137.111,46.889,137.678,48.259z"/>
	<path fill="#FFFFFF" d="M168.103,48.661l-0.98,1.298c-1.296-0.866-2.844-1.716-4.644-2.55s-3.404-1.464-4.812-1.887v9.913h-1.663
		V39.075h1.682v5.008C161.379,45.192,164.852,46.718,168.103,48.661z"/>
	<path fill="#FFFFFF" d="M179.104,46.11c-0.965,3.251-2.612,5.886-4.941,7.904l-1.131-0.896c1.215-1.146,2.197-2.406,2.947-3.779
		c0.751-1.374,1.241-2.546,1.472-3.518L179.104,46.11z M183.31,55.294h-1.645V43.812h-7.708v-1.336h7.708v-3.139h1.645v3.139h7.521
		v1.336h-7.521V55.294z M191.867,53.024l-1.271,1.009c-1.009-0.947-1.95-2.202-2.821-3.765c-0.872-1.563-1.492-2.968-1.859-4.214
		l1.522-0.327C188.298,48.381,189.774,50.813,191.867,53.024z M188.476,41.233l-1.074,0.477c-0.448-1.015-0.9-1.887-1.354-2.616
		l1.018-0.467C187.594,39.443,188.064,40.312,188.476,41.233z M191.194,40.664l-1.074,0.439c-0.424-0.99-0.869-1.853-1.336-2.588
		l0.972-0.458C190.26,38.835,190.739,39.705,191.194,40.664z"/>
	<path fill="#FFFFFF" d="M214.024,48.661l-0.98,1.298c-1.296-0.866-2.844-1.716-4.644-2.55s-3.404-1.464-4.812-1.887v9.913h-1.663
		V39.075h1.682v5.008C207.301,45.192,210.773,46.718,214.024,48.661z"/>
	<path fill="#FFFFFF" d="M224.643,44.681c0,1.47-0.065,2.667-0.196,3.592c-0.131,0.925-0.428,1.831-0.892,2.719
		c-0.465,0.887-1.048,1.699-1.752,2.434s-1.461,1.314-2.271,1.738l-0.691-1.187c0.778-0.479,1.498-1.112,2.158-1.896
		c0.66-0.785,1.168-1.713,1.523-2.784c0.354-1.071,0.532-2.712,0.532-4.924V40.43h1.588V44.681z M237.938,48.007
		c-0.798,1.701-2.029,3.181-3.695,4.443c-1.666,1.261-3.312,2.116-4.938,2.564l-0.682-0.635V39.832h1.569v13.192
		c1.027-0.305,2.145-0.937,3.35-1.896c1.205-0.959,2.281-2.273,3.228-3.942L237.938,48.007z"/>
</g>
</svg>
