<?xml version="1.0" encoding="utf-8"?>
<!-- Generator: Adobe Illustrator 15.0.2, SVG Export Plug-In . SVG Version: 6.00 Build 0)  -->
<!DOCTYPE svg PUBLIC "-//W3C//DTD SVG 1.1//EN" "http://www.w3.org/Graphics/SVG/1.1/DTD/svg11.dtd">
<svg version="1.1" id="レイヤー_1" xmlns="http://www.w3.org/2000/svg" xmlns:xlink="http://www.w3.org/1999/xlink" x="0px"
	 y="0px" width="283.46px" height="283.46px" viewBox="0 0 283.46 283.46" enable-background="new 0 0 283.46 283.46"
	 xml:space="preserve">
<g>
	<path fill="#FFFFFF" d="M24.953,82.051l-1.211-0.804c0.995-1.195,1.82-2.655,2.476-4.379c0.655-1.725,1.058-3.213,1.206-4.466
		l1.599,0.242c-0.271,1.673-0.773,3.376-1.506,5.111C26.783,79.489,25.928,80.921,24.953,82.051z M31.997,86.285h-2.878
		l-0.155-1.443h2.548c0.62,0,0.93-0.242,0.93-0.727V69.02h1.638v15.706c0,0.478-0.195,0.857-0.586,1.138
		C33.103,86.145,32.604,86.285,31.997,86.285z M41.289,81.935c-0.762-1.188-1.541-2.774-2.335-4.757
		c-0.794-1.983-1.354-3.523-1.676-4.622l1.521-0.397c0.465,1.602,1.082,3.252,1.851,4.951c0.769,1.699,1.453,3.023,2.054,3.973
		L41.289,81.935z"/>
	<path fill="#FFFFFF" d="M46.189,86.043v-1.191h8.119v-2.374H47.4v-1.191h6.908v-1.279h1.55v1.279h7.295v1.191h-7.295v2.374h8.545
		v1.191H46.189z M47.322,79.784l-0.765-0.843c1.453-0.969,2.229-2.273,2.325-3.915h-2.17v-1.085h2.209v-3.139h-1.763v-1.095h9.214
		v1.095h-1.618v3.139h1.802v1.085h-1.802v4.195H53.31v-4.195h-3.003C50.087,77.113,49.092,78.699,47.322,79.784z M50.355,70.803
		v3.139h2.955v-3.139H50.355z M57.641,75.918v-5.93h1.443v5.93H57.641z M61.449,79.164h-2.267l-0.204-1.337h1.783
		c0.542,0,0.814-0.252,0.814-0.756V69.02h1.492v8.623c0,0.439-0.173,0.803-0.518,1.09C62.203,79.021,61.836,79.164,61.449,79.164z"
		/>
	<path fill="#FFFFFF" d="M80.214,84.726c0.375-0.71,0.93-2.044,1.666-4.001l1.599,0.387c-0.407,0.847-1.004,2.051-1.792,3.614h3.836
		v1.182H68.607v-1.182h3.633c-0.575-1.725-1.034-2.929-1.376-3.614l1.482-0.387l1.492,4.001h2.374v-5.193h-6.84v-1.201h6.84v-2.868
		h-3.866v-1.114c-1.395,0.976-2.771,1.776-4.127,2.403l-0.707-1.027c1.259-0.523,2.832-1.511,4.718-2.965
		c1.886-1.453,3.165-2.758,3.837-3.914h2.044c0.827,1.156,2.04,2.353,3.638,3.589c1.599,1.237,3.273,2.211,5.023,2.921l-0.824,1.172
		c-1.466-0.601-3.076-1.565-4.83-2.892c-1.754-1.328-3.066-2.576-3.938-3.745c-1.214,1.557-2.816,3.036-4.806,4.438H81.9v1.133
		h-4.186v2.868h7.141v1.201h-7.141v5.193H80.214z"/>
	<path fill="#FFFFFF" d="M106.817,72.634H92.342v3.401c0,2.054-0.21,4.052-0.63,5.993s-0.885,3.289-1.395,4.045l-1.046-0.668
		c0.446-0.833,0.833-2.027,1.163-3.58c0.33-1.553,0.494-3.112,0.494-4.675v-7.751h15.89V72.634z M105.48,71.704v-1.337H92.342v1.337
		H105.48z M107.321,84.958c0,0.446-0.155,0.801-0.465,1.066c-0.31,0.265-0.707,0.397-1.191,0.397h-2.306l-0.184-1.133h1.938
		c0.555,0,0.833-0.223,0.833-0.669v-3.236h-5.261v1.841c0.943-0.09,1.663-0.171,2.16-0.242c-0.097-0.265-0.229-0.597-0.397-0.998
		l1.066-0.32c0.251,0.614,0.623,1.482,1.114,2.606l-1.153,0.33c-0.039-0.09-0.126-0.31-0.262-0.659
		c-1.569,0.239-3.943,0.485-7.121,0.736l-0.242-1.095c0.904-0.045,2.07-0.126,3.498-0.242v-1.957h-4.699v5.116h-1.396v-6.056h6.094
		v-1.211h-5.077v-3.275h5.077v-1.172c-2.467,0.078-4.314,0.104-5.542,0.078l-0.126-0.969h0.446c2.273,0,4.613-0.062,7.02-0.184
		s4.019-0.278,4.839-0.465l0.552,1.027c-1.079,0.213-3.01,0.368-5.793,0.465v1.221h5.329v3.275h-5.329v1.211h6.579V84.958z
		 M99.347,78.36v-1.511h-3.769v1.511H99.347z M104.753,78.36v-1.511h-4.011v1.511H104.753z"/>
	<path fill="#FFFFFF" d="M115.478,85.2v-2.015c-1.286,0.445-2.519,0.788-3.701,1.027l-0.388-1.008
		c2.345-0.458,4.683-1.275,7.015-2.451h-6.404V79.6h7.926v-1.25h1.521v1.25h8.216v1.153h-7.421c0.633,0.814,1.424,1.554,2.374,2.219
		c1.454-0.762,2.477-1.359,3.071-1.792l1.046,0.814c-0.807,0.536-1.831,1.088-3.071,1.657c1.324,0.762,2.774,1.328,4.351,1.696
		l-0.833,1.133c-1.77-0.388-3.409-1.103-4.917-2.146s-2.705-2.236-3.59-3.58h-0.116c-1.007,0.691-2.209,1.314-3.604,1.87v2.441
		c2.978-0.277,4.964-0.514,5.958-0.707l-0.029,1.153c-1.124,0.226-4.211,0.549-9.263,0.969l-0.184-1.133
		C114.066,85.307,114.748,85.258,115.478,85.2z M120.98,77.798h-1.618l-0.126-1.007h1.133c0.433,0,0.649-0.184,0.649-0.552v-0.911
		h-2.771v3.197h-1.454v-3.197h-2.712v2.597h-1.337v-3.526h4.05v-1.134h-4.679v-0.95h4.679v-1.172h-2.868
		c-0.362,0.439-0.656,0.75-0.882,0.93l-0.891-0.503c0.672-0.652,1.292-1.515,1.86-2.587l1.279,0.242
		c-0.168,0.284-0.372,0.594-0.61,0.93h2.112v-1.202h1.454v1.202h3.962v0.988h-3.962v1.172h4.573v0.95h-4.573v1.134h4.127v2.151
		c0,0.375-0.137,0.676-0.412,0.906C121.689,77.684,121.362,77.798,120.98,77.798z M123.791,75.637v-6.055h1.424v6.055H123.791z
		 M127.114,78.428h-2.19l-0.155-1.25h1.715c0.484,0,0.727-0.223,0.727-0.668v-7.528h1.541v8.032c0,0.407-0.158,0.745-0.475,1.013
		S127.572,78.428,127.114,78.428z"/>
	<path fill="#FFFFFF" d="M149.492,85.055c-1.93,0.297-4.104,0.446-6.52,0.446h-1.144c-3.062,0-5.133-0.31-6.215-0.93
		c-1.082-0.62-1.623-1.508-1.623-2.665c0-1.408,0.662-2.69,1.986-3.846l1.056,0.785c-1.046,1.027-1.569,2.012-1.569,2.955
		c0,0.82,0.47,1.412,1.41,1.773c0.94,0.362,2.856,0.543,5.75,0.543c2.248,0,4.457-0.162,6.626-0.485L149.492,85.055z M148.117,72.74
		c-1.725,0.672-3.381,1.47-4.971,2.394l-0.697-0.969c0.652-0.349,1.637-0.859,2.955-1.531l-0.039-0.194
		c-2.248,0.039-5.623,0.146-10.125,0.32l-0.077-1.356c2.984-0.123,6.453-0.184,10.405-0.184c0.932,0,1.586,0.01,1.967,0.029
		L148.117,72.74z M149.629,71.403l-1.105,0.494c-0.465-1.04-0.936-1.944-1.414-2.713l1.057-0.475
		C148.729,69.582,149.215,70.48,149.629,71.403z M152.332,71.006l-1.115,0.455c-0.426-1.001-0.887-1.896-1.385-2.684l1.008-0.475
		C151.363,69.11,151.859,70.012,152.332,71.006z"/>
	<path fill="#FFFFFF" d="M173.945,78.844l-0.475,1.434c-0.865-0.336-1.67-0.633-2.412-0.892c-0.33,1.563-0.869,2.881-1.618,3.953
		c-0.75,1.072-1.786,2.015-3.11,2.829l-0.892-1.007c2.3-1.557,3.694-3.643,4.186-6.259c-2.041-0.639-3.943-1.056-5.706-1.25
		c-1.809,4.832-3.824,7.247-6.046,7.247c-0.711,0-1.302-0.267-1.773-0.799c-0.472-0.533-0.707-1.177-0.707-1.933
		c0-0.827,0.237-1.69,0.712-2.592c0.475-0.901,1.229-1.682,2.263-2.345c1.033-0.662,2.205-0.996,3.517-1.002
		c0.297,0,0.604,0.006,0.921,0.019c0.484-1.485,0.807-2.961,0.969-4.428h-6.152v-1.23h7.596l0.301,0.32
		c-0.246,2.002-0.63,3.827-1.153,5.474c1.698,0.2,3.517,0.588,5.455,1.163c0.038-0.471,0.058-1.631,0.058-3.478h1.512l0.01,1.686
		c0,0.898-0.036,1.647-0.106,2.248C171.885,78.182,172.77,78.463,173.945,78.844z M162.367,77.537
		c-0.297-0.013-0.536-0.02-0.717-0.02c-1.008,0-1.891,0.273-2.649,0.819c-0.76,0.546-1.315,1.2-1.667,1.962
		c-0.353,0.762-0.528,1.398-0.528,1.909c0,0.355,0.12,0.662,0.358,0.92c0.239,0.258,0.53,0.387,0.872,0.387
		c0.679,0,1.447-0.631,2.307-1.894C161.201,80.357,161.876,78.996,162.367,77.537z"/>
	<path fill="#FFFFFF" d="M184.495,78.176c0-0.491,0.174-0.911,0.522-1.259c0.35-0.349,0.769-0.523,1.26-0.523
		s0.911,0.174,1.26,0.523c0.349,0.349,0.523,0.769,0.523,1.259c0,0.491-0.175,0.911-0.523,1.26c-0.349,0.349-0.769,0.523-1.26,0.523
		s-0.91-0.174-1.26-0.523C184.669,79.086,184.495,78.667,184.495,78.176z"/>
	<path fill="#FFFFFF" d="M203.153,74.853v2.693c0,3.805-1.107,6.779-3.323,8.923l-0.93-0.794c0.917-0.981,1.623-2.185,2.117-3.609
		s0.741-2.918,0.741-4.481V74.3c-0.801,0.685-1.65,1.321-2.549,1.909l-0.755-0.891c1.214-0.814,2.4-1.823,3.561-3.028
		c1.159-1.205,2.059-2.456,2.698-3.754l1.521,0.349c-0.232,0.433-0.465,0.83-0.697,1.192h6.201l0.504,0.407
		c-0.523,0.904-1.289,1.964-2.297,3.178h6.995v1.191H203.153z M202.485,73.661h5.949c0.567-0.75,1.113-1.589,1.637-2.52h-5.3
		C204.067,72.065,203.306,72.905,202.485,73.661z M205.324,76.655h9.611v4.127c0,1.053-0.614,1.579-1.841,1.579h-2.171l-0.184-1.259
		h1.928c0.549,0,0.823-0.236,0.823-0.708v-2.625h-6.694v6.433c0,0.433,0.276,0.701,0.828,0.804c0.553,0.104,1.694,0.155,3.425,0.155
		c1.033,0,1.897-0.024,2.592-0.073s1.151-0.121,1.371-0.218c0.22-0.097,0.389-0.266,0.509-0.508
		c0.119-0.242,0.179-0.909,0.179-2.001l1.318,0.155v2.112c0,0.484-0.141,0.864-0.422,1.139c-0.281,0.274-0.731,0.445-1.352,0.513
		s-1.97,0.102-4.05,0.102c-1.233,0-2.271-0.02-3.115-0.058c-0.843-0.039-1.422-0.107-1.738-0.204
		c-0.317-0.097-0.565-0.273-0.746-0.528c-0.182-0.255-0.271-0.583-0.271-0.983V76.655z"/>
	<path fill="#FFFFFF" d="M225.049,75.124c0.188,0.258,0.45,0.686,0.789,1.284c0.34,0.598,0.565,1.143,0.679,1.637
		s0.17,0.929,0.17,1.303v0.048c0,0.801-0.108,1.471-0.325,2.011c-0.216,0.539-0.527,0.93-0.935,1.172
		c-0.407,0.242-0.973,0.363-1.695,0.363h-0.388l-0.242-1.26c0.413,0,0.788-0.015,1.124-0.043c0.335-0.029,0.597-0.226,0.784-0.591
		c0.188-0.365,0.281-0.902,0.281-1.613c0-1.389-0.507-2.739-1.521-4.05v-0.019c0-0.02-0.01-0.071-0.028-0.155
		c-0.02-0.077-0.029-0.126-0.029-0.145c0.238-0.568,0.531-1.403,0.877-2.505c0.345-1.101,0.518-1.778,0.518-2.03h-2.345v15.987
		h-1.375V69.456h5.154l0.28,0.388c-0.148,0.646-0.428,1.597-0.838,2.853S225.262,74.762,225.049,75.124z M231.986,76.277v-1.938
		h-2.345v-1.007c-0.859,0.724-1.709,1.308-2.549,1.753l-0.717-0.93c2.396-1.395,4.173-3.162,5.329-5.299h1.782
		c0.523,0.897,1.332,1.812,2.428,2.742c1.095,0.93,2.269,1.667,3.521,2.209l-0.795,1.076c-2.647-1.286-4.624-2.933-5.929-4.941
		c-0.775,1.182-1.78,2.296-3.014,3.343h6.152v1.056h-2.402v1.938h4.204v4.883h-3.808c0.484,0.885,1.221,1.707,2.209,2.466
		c0.988,0.759,2.055,1.326,3.197,1.7l-0.727,1.114c-1.259-0.414-2.402-1.037-3.43-1.87c-1.026-0.833-1.809-1.776-2.345-2.829
		c-1.06,2.364-3.136,3.963-6.229,4.796l-0.504-1.046c1.447-0.407,2.642-1.007,3.585-1.802c0.943-0.795,1.608-1.638,1.996-2.529
		h-3.518v-4.883H231.986z M231.986,77.313h-2.568v2.81h2.568V77.313z M236.22,77.313h-2.771v2.81h2.771V77.313z"/>
	<path fill="#FFFFFF" d="M258.628,85.055c-1.931,0.297-4.104,0.446-6.521,0.446h-1.143c-3.062,0-5.134-0.31-6.216-0.93
		s-1.623-1.508-1.623-2.665c0-1.408,0.662-2.69,1.986-3.846l1.057,0.785c-1.047,1.027-1.57,2.012-1.57,2.955
		c0,0.82,0.471,1.412,1.41,1.773c0.939,0.362,2.856,0.543,5.75,0.543c2.248,0,4.457-0.162,6.627-0.485L258.628,85.055z
		 M257.253,72.74c-1.725,0.672-3.382,1.47-4.971,2.394l-0.697-0.969c0.652-0.349,1.637-0.859,2.955-1.531l-0.039-0.194
		c-2.248,0.039-5.623,0.146-10.125,0.32l-0.077-1.356c2.984-0.123,6.452-0.184,10.405-0.184c0.931,0,1.586,0.01,1.967,0.029
		L257.253,72.74z M258.764,71.403l-1.104,0.494c-0.465-1.04-0.937-1.944-1.414-2.713l1.056-0.475
		C257.863,69.582,258.351,70.48,258.764,71.403z M261.467,71.006l-1.114,0.455c-0.426-1.001-0.888-1.896-1.385-2.684l1.007-0.475
		C260.498,69.11,260.995,70.012,261.467,71.006z"/>
	<path fill="#FFFFFF" d="M283.081,78.844l-0.475,1.434c-0.865-0.336-1.67-0.633-2.412-0.892c-0.33,1.563-0.869,2.881-1.618,3.953
		c-0.75,1.072-1.786,2.015-3.11,2.829l-0.892-1.007c2.3-1.557,3.694-3.643,4.186-6.259c-2.041-0.639-3.943-1.056-5.706-1.25
		c-1.809,4.832-3.824,7.247-6.046,7.247c-0.711,0-1.302-0.267-1.773-0.799c-0.472-0.533-0.707-1.177-0.707-1.933
		c0-0.827,0.237-1.69,0.712-2.592c0.475-0.901,1.229-1.682,2.263-2.345c1.033-0.662,2.205-0.996,3.517-1.002
		c0.297,0,0.604,0.006,0.921,0.019c0.484-1.485,0.807-2.961,0.969-4.428h-6.152v-1.23h7.596l0.301,0.32
		c-0.246,2.002-0.63,3.827-1.153,5.474c1.698,0.2,3.517,0.588,5.455,1.163c0.038-0.471,0.058-1.631,0.058-3.478h1.512l0.01,1.686
		c0,0.898-0.036,1.647-0.106,2.248C281.021,78.182,281.905,78.463,283.081,78.844z M271.503,77.537
		c-0.297-0.013-0.536-0.02-0.717-0.02c-1.008,0-1.891,0.273-2.649,0.819c-0.76,0.546-1.315,1.2-1.667,1.962
		c-0.353,0.762-0.528,1.398-0.528,1.909c0,0.355,0.12,0.662,0.358,0.92c0.239,0.258,0.53,0.387,0.872,0.387
		c0.679,0,1.447-0.631,2.307-1.894C270.337,80.357,271.012,78.996,271.503,77.537z"/>
</g>
</svg>
