<?xml version="1.0" encoding="utf-8"?>
<!-- Generator: Adobe Illustrator 15.0.2, SVG Export Plug-In . SVG Version: 6.00 Build 0)  -->
<!DOCTYPE svg PUBLIC "-//W3C//DTD SVG 1.1//EN" "http://www.w3.org/Graphics/SVG/1.1/DTD/svg11.dtd">
<svg version="1.1" id="レイヤー_1" xmlns="http://www.w3.org/2000/svg" xmlns:xlink="http://www.w3.org/1999/xlink" x="0px"
	 y="0px" width="283.46px" height="283.46px" viewBox="0 0 283.46 283.46" enable-background="new 0 0 283.46 283.46"
	 xml:space="preserve">
<g>
	<path fill="#FFFFFF" d="M42.801,100.176c-0.594-0.755-1.069-1.489-1.424-2.199c-0.517,1.899-1.44,3.672-2.771,5.319l-0.93-0.708
		c1.957-2.435,2.936-5.471,2.936-9.107v-7.615h1.376v3.633c0.291-0.355,0.655-0.83,1.095-1.424l0.833,0.708
		c-0.387,0.478-1.03,1.133-1.928,1.967v1.899c0,1.363-0.087,2.59-0.262,3.682c0.575,1.104,1.243,2.106,2.005,3.003L42.801,100.176z
		 M38.955,94.149l-1.153-0.184c0.245-0.937,0.413-2.461,0.504-4.573l1.172,0.039C39.445,91.395,39.271,92.968,38.955,94.149z
		 M46.483,94.702L44.399,93.2l0.582-0.833l2.112,1.424c0.335-0.594,0.617-1.201,0.843-1.821l-2.083-1.124l0.504-0.872l1.879,0.988
		c0.168-0.685,0.284-1.466,0.349-2.345h-2.412c-0.743,1.828-1.66,3.307-2.752,4.438l-0.862-0.707
		c0.724-0.814,1.361-1.813,1.914-2.999c0.552-1.185,0.932-2.359,1.139-3.521l1.337,0.126c-0.104,0.575-0.239,1.127-0.407,1.657
		h3.381c0.006,0.071,0.01,0.148,0.01,0.232c0,0.646-0.068,1.411-0.204,2.296h1.851v-4.253h1.424v4.253h3.032v1.133h-2.887
		c0.568,2.448,1.773,4.479,3.614,6.094l-1.056,0.969c-1.589-1.576-2.678-3.3-3.265-5.174c-0.698,2.261-2.07,3.966-4.118,5.116
		l-0.727-0.872c2.268-1.492,3.579-3.536,3.934-6.133h-2.016c-0.342,1.531-1,2.892-1.972,4.084c-0.972,1.191-2.149,2.146-3.531,2.863
		l-0.63-0.891C44.681,96.565,45.714,95.69,46.483,94.702z M43.954,103.354l-1.24-0.562c0.575-0.904,1.088-2.131,1.541-3.682
		l1.298,0.281C45.236,100.754,44.703,102.075,43.954,103.354z M47.316,103.238c-0.278-1.88-0.488-3.143-0.63-3.789l1.298-0.262
		c0.33,1.44,0.572,2.688,0.727,3.74L47.316,103.238z M50.979,103.17c-0.278-1.027-0.643-2.293-1.095-3.798l1.27-0.329
		c0.355,0.898,0.755,2.173,1.201,3.827L50.979,103.17z M54.96,103.257c-0.788-2.021-1.382-3.384-1.783-4.088l1.24-0.484
		c0.659,1.143,1.292,2.513,1.899,4.108L54.96,103.257z M54.844,89.451c-0.355-0.872-0.74-1.634-1.153-2.287l1.066-0.426
		c0.472,0.782,0.878,1.537,1.221,2.267L54.844,89.451z"/>
	<path fill="#FFFFFF" d="M67.515,102.763l-1.531,0.3c-0.491-2.176-1.356-5.674-2.596-10.493c-1.234,0.342-2.419,0.685-3.556,1.027
		L59.57,92.27l3.478-0.998c-0.465-1.763-0.882-3.249-1.25-4.457l1.55-0.339l1.182,4.399c1.821-0.485,3.414-0.872,4.776-1.163
		c-0.594-0.885-1.146-1.66-1.657-2.325l1.211-0.639c0.4,0.471,1.046,1.363,1.938,2.674c1.163-0.207,2.07-0.31,2.723-0.31
		c1.356,0,2.451,0.384,3.285,1.153c0.833,0.769,1.25,1.796,1.25,3.081c0,1.312-0.468,2.377-1.405,3.197
		c-0.937,0.821-2.245,1.23-3.924,1.23c-0.911,0-1.776-0.081-2.597-0.242l0.039-1.25c0.666,0.116,1.389,0.174,2.17,0.174
		c0.607,0,1.142-0.041,1.604-0.121s0.895-0.253,1.298-0.519c0.403-0.265,0.715-0.604,0.935-1.017
		c0.219-0.414,0.329-0.878,0.329-1.396c0-0.943-0.263-1.686-0.79-2.228s-1.261-0.817-2.204-0.824c-0.452,0-1.098,0.074-1.938,0.223
		c0.419,0.666,0.804,1.337,1.153,2.016l-1.405,0.591c-0.213-0.523-0.636-1.292-1.27-2.306c-1.447,0.316-3.178,0.746-5.193,1.289
		L67.515,102.763z"/>
	<path fill="#FFFFFF" d="M99.834,90.003h-6.114v3.73c0.426,0.75,0.64,1.776,0.64,3.081c-0.006,1.705-0.638,3.138-1.894,4.297
		c-1.256,1.159-2.808,1.797-4.656,1.914l-0.397-1.211c1.55-0.11,2.853-0.643,3.909-1.599s1.584-2.141,1.584-3.556
		c0-0.239-0.013-0.456-0.039-0.649c-0.162,0.75-0.539,1.339-1.133,1.768c-0.595,0.43-1.308,0.645-2.142,0.645
		c-0.943,0-1.741-0.299-2.393-0.896c-0.652-0.597-0.979-1.348-0.979-2.252c0-1.04,0.367-1.907,1.1-2.602
		c0.733-0.694,1.633-1.042,2.698-1.042c0.801,0,1.515,0.236,2.142,0.708v-2.335h-9.708v-1.27h9.708v-2.315h1.56v2.315h6.114V90.003z
		 M92.18,93.937c-0.368-0.73-1.137-1.095-2.306-1.095c-0.568,0.006-1.076,0.242-1.521,0.707c-0.446,0.465-0.666,0.985-0.659,1.56
		c0,0.626,0.174,1.13,0.523,1.511c0.349,0.381,0.823,0.572,1.424,0.572c0.762,0,1.371-0.249,1.826-0.746
		c0.456-0.497,0.693-1.149,0.712-1.957V93.937z"/>
	<path fill="#FFFFFF" d="M119.521,102.026c-1.932,0.297-4.105,0.446-6.521,0.446h-1.144c-3.062,0-5.133-0.31-6.215-0.93
		c-1.082-0.62-1.623-1.508-1.623-2.665c0-1.408,0.662-2.69,1.986-3.846l1.056,0.785c-1.046,1.027-1.569,2.012-1.569,2.955
		c0,0.82,0.47,1.412,1.41,1.773c0.94,0.362,2.856,0.543,5.75,0.543c2.248,0,4.457-0.162,6.627-0.485L119.521,102.026z
		 M118.145,89.712c-1.725,0.672-3.381,1.47-4.97,2.394l-0.698-0.969c0.652-0.349,1.638-0.859,2.955-1.531l-0.039-0.194
		c-2.248,0.039-5.623,0.146-10.125,0.32l-0.077-1.356c2.984-0.123,6.453-0.184,10.406-0.184c0.93,0,1.585,0.01,1.967,0.029
		L118.145,89.712z M119.656,88.375l-1.104,0.494c-0.465-1.04-0.937-1.944-1.415-2.713l1.056-0.475
		C118.755,86.554,119.243,87.452,119.656,88.375z M122.359,87.978l-1.114,0.455c-0.426-1.001-0.888-1.896-1.386-2.684l1.008-0.475
		C121.39,86.082,121.888,86.983,122.359,87.978z"/>
	<path fill="#FFFFFF" d="M143.972,95.816l-0.475,1.434c-0.865-0.336-1.669-0.633-2.412-0.892c-0.33,1.563-0.869,2.881-1.618,3.953
		c-0.749,1.072-1.786,2.015-3.11,2.829l-0.892-1.007c2.3-1.557,3.695-3.643,4.186-6.259c-2.041-0.639-3.943-1.056-5.707-1.25
		c-1.809,4.832-3.824,7.247-6.046,7.247c-0.71,0-1.301-0.267-1.773-0.799c-0.472-0.533-0.707-1.177-0.707-1.933
		c0-0.827,0.237-1.69,0.712-2.592c0.475-0.901,1.229-1.682,2.262-2.345c1.034-0.662,2.206-0.996,3.517-1.002
		c0.297,0,0.604,0.006,0.92,0.019c0.484-1.485,0.808-2.961,0.969-4.428h-6.152v-1.23h7.596l0.3,0.32
		c-0.246,2.002-0.63,3.827-1.153,5.474c1.699,0.2,3.517,0.588,5.455,1.163c0.039-0.471,0.058-1.631,0.058-3.478h1.512l0.01,1.686
		c0,0.898-0.036,1.647-0.107,2.248C141.912,95.154,142.796,95.435,143.972,95.816z M132.395,94.508
		c-0.297-0.013-0.536-0.02-0.717-0.02c-1.008,0-1.891,0.273-2.65,0.819c-0.759,0.546-1.314,1.2-1.667,1.962
		s-0.528,1.398-0.528,1.909c0,0.355,0.119,0.662,0.358,0.92c0.239,0.258,0.529,0.387,0.872,0.387c0.678,0,1.447-0.631,2.306-1.894
		S131.904,95.968,132.395,94.508z"/>
</g>
</svg>
